<svg width="46" height="45" viewBox="0 0 46 45" fill="none" xmlns="http://www.w3.org/2000/svg">
<g clip-path="url(#clip0_246_18699)">
<path d="M31.9494 0.0225197C31.8538 -0.0843553 28.4085 0.0647073 25.4104 3.31877C22.4122 6.57002 22.8735 10.2994 22.941 10.395C23.0085 10.4906 27.216 10.6397 29.9019 6.8569C32.5879 3.07408 32.045 0.132207 31.9494 0.0225197ZM41.27 33.0216C41.135 32.7516 34.731 29.551 35.3272 23.3972C35.9235 17.2435 40.0382 15.5531 40.1029 15.3703C40.1675 15.1875 38.4238 13.1485 36.576 12.1163C35.219 11.3892 33.7176 10.9724 32.18 10.8956C31.8763 10.8872 30.8216 10.6285 28.6532 11.2219C27.2244 11.6128 24.0041 12.8785 23.1182 12.9291C22.2294 12.9797 19.5857 11.461 16.7422 11.0588C14.9225 10.7072 12.9932 11.4272 11.6122 11.9813C10.2341 12.5325 7.61285 14.1019 5.7791 18.2728C3.94535 22.441 4.90441 29.0447 5.59066 31.0978C6.27691 33.151 7.34847 36.5091 9.17097 38.9616C10.791 41.7291 12.9397 43.65 13.8369 44.3025C14.7341 44.955 17.2653 45.3882 19.0203 44.491C20.4322 43.6247 22.9803 43.1269 23.9872 43.1635C24.9913 43.2 26.9713 43.5966 28.9991 44.6794C30.605 45.2335 32.1238 45.0028 33.6453 44.3841C35.1669 43.7625 37.3691 41.4057 39.9397 36.6272C40.9147 34.4053 41.3582 33.2035 41.27 33.0216Z" fill="black"/>
<path d="M31.9494 0.0225197C31.8538 -0.0843553 28.4085 0.0647073 25.4104 3.31877C22.4122 6.57002 22.8735 10.2994 22.941 10.395C23.0085 10.4906 27.216 10.6397 29.9019 6.8569C32.5879 3.07408 32.045 0.132207 31.9494 0.0225197ZM41.27 33.0216C41.135 32.7516 34.731 29.551 35.3272 23.3972C35.9235 17.2435 40.0382 15.5531 40.1029 15.3703C40.1675 15.1875 38.4238 13.1485 36.576 12.1163C35.219 11.3892 33.7176 10.9724 32.18 10.8956C31.8763 10.8872 30.8216 10.6285 28.6532 11.2219C27.2244 11.6128 24.0041 12.8785 23.1182 12.9291C22.2294 12.9797 19.5857 11.461 16.7422 11.0588C14.9225 10.7072 12.9932 11.4272 11.6122 11.9813C10.2341 12.5325 7.61285 14.1019 5.7791 18.2728C3.94535 22.441 4.90441 29.0447 5.59066 31.0978C6.27691 33.151 7.34847 36.5091 9.17097 38.9616C10.791 41.7291 12.9397 43.65 13.8369 44.3025C14.7341 44.955 17.2653 45.3882 19.0203 44.491C20.4322 43.6247 22.9803 43.1269 23.9872 43.1635C24.9913 43.2 26.9713 43.5966 28.9991 44.6794C30.605 45.2335 32.1238 45.0028 33.6453 44.3841C35.1669 43.7625 37.3691 41.4057 39.9397 36.6272C40.9147 34.4053 41.3582 33.2035 41.27 33.0216Z" fill="black"/>
</g>
<defs>
<clipPath id="clip0_246_18699">
<rect width="45" height="45" fill="white" transform="translate(0.5)"/>
</clipPath>
</defs>
</svg>
